<svg width="321" height="160" viewBox="0 0 321 160" fill="none" xmlns="http://www.w3.org/2000/svg">
<g clip-path="url(#clip0_2004_185)">
<path d="M291.27 65.3222V10.8692H184.177V32.6072H195.366V22.0582H280.081V69.0122L290.058 82.4812L195.366 129.576V119.88H184.177V147.692L307.205 86.8072L291.27 65.3222Z" fill="#4DBDB1"/>
<mask id="mask0_2004_185" style="mask-type:luminance" maskUnits="userSpaceOnUse" x="0" y="0" width="321" height="160">
<path d="M320.36 0H0.679993V159.84H320.36V0Z" fill="white"/>
</mask>
<g mask="url(#mask0_2004_185)">
<path d="M14.7464 97.8854L20.8944 89.4094C25.0854 93.9734 31.8844 98.0714 40.5474 98.0714C49.4894 98.0714 52.9354 93.6944 52.9354 89.5024C52.9354 76.4624 16.7954 84.5664 16.7954 61.7454C16.7954 51.4064 25.7374 43.4894 39.4294 43.4894C49.0234 43.4894 56.9404 46.6564 62.6224 52.2454L56.4744 60.3484C51.5384 55.4124 44.9244 53.1764 38.4054 53.1764C32.0714 53.1764 27.9724 56.3434 27.9724 60.9073C27.9724 72.5504 64.1124 65.3784 64.1124 88.4784C64.1124 98.8174 56.7544 107.758 40.0814 107.758C28.6244 107.758 20.3344 103.66 14.7464 97.8854Z" fill="#292969"/>
<path d="M117.364 106.453V79.6004H85.0757V106.453H74.2067V44.4354H85.0757V69.6904H117.364V44.4354H128.233V106.453H117.364Z" fill="#292969"/>
<path d="M184.865 106.453L152.848 62.4214V106.453H141.659V44.4354H152.49L184.176 87.3924V44.4354H195.365V106.453H184.865Z" fill="#292969"/>
</g>
</g>
<defs>
<clipPath id="clip0_2004_185">
<rect width="319.68" height="159.84" fill="white" transform="translate(0.679993)"/>
</clipPath>
</defs>
</svg>
